<svg xmlns="http://www.w3.org/2000/svg" version="1.1" xmlns:xlink="http://www.w3.org/1999/xlink" xmlns:svgjs="http://svgjs.dev/svgjs" width="1500" height="287" viewBox="0 0 1500 287"><g transform="matrix(1,0,0,1,-0.9090909090909918,-0.9659975422608511)"><svg viewBox="0 0 396 76" data-background-color="#ffffff" preserveAspectRatio="xMidYMid meet" height="287" width="1500" xmlns="http://www.w3.org/2000/svg" xmlns:xlink="http://www.w3.org/1999/xlink"><g id="tight-bounds" transform="matrix(1,0,0,1,0.2400000000000091,0.2558042272189027)"><svg viewBox="0 0 395.52 75.48839154556222" height="75.48839154556222" width="395.52"><g><svg viewBox="0 0 509.3372321024237 97.21138856614246" height="75.48839154556222" width="395.52"><g transform="matrix(1,0,0,1,113.8172321024237,13.43514849213691)"><svg viewBox="0 0 395.52 70.34109158186864" height="70.34109158186864" width="395.52"><g id="textblocktransform"><svg viewBox="0 0 395.52 70.34109158186864" height="70.34109158186864" width="395.52" id="textblock"><g><svg viewBox="0 0 395.52 70.34109158186864" height="70.34109158186864" width="395.52"><g transform="matrix(1,0,0,1,0,0)"><svg width="395.52" viewBox="3.05 -37.85 216.17999999999998 38.45" height="70.34109158186864" data-palette-color="#ffffff"><path d="M21.3 0.6L21.3 0.6Q17.35 0.6 14.03-0.83 10.7-2.25 8.22-4.85 5.75-7.45 4.4-10.95 3.05-14.45 3.05-18.6L3.05-18.6Q3.05-22.8 4.4-26.3 5.75-29.8 8.2-32.4 10.65-35 14-36.43 17.35-37.85 21.3-37.85L21.3-37.85Q25.15-37.85 28.23-36.5 31.3-35.15 33.43-33 35.55-30.85 36.45-28.4L36.45-28.4 31.95-26.35Q30.65-29.45 27.9-31.38 25.15-33.3 21.3-33.3L21.3-33.3Q17.4-33.3 14.38-31.45 11.35-29.6 9.65-26.3 7.95-23 7.95-18.6L7.95-18.6Q7.95-14.25 9.65-10.95 11.35-7.65 14.38-5.8 17.4-3.95 21.3-3.95L21.3-3.95Q25.15-3.95 27.9-5.88 30.65-7.8 31.95-10.9L31.95-10.9 36.45-8.85Q35.55-6.4 33.43-4.25 31.3-2.1 28.23-0.75 25.15 0.6 21.3 0.6ZM49.95 0.6L49.95 0.6Q47.3 0.6 45.27-0.38 43.25-1.35 42.1-3.08 40.95-4.8 40.95-7.05L40.95-7.05Q40.95-9.2 41.87-10.93 42.8-12.65 44.77-13.85 46.75-15.05 49.75-15.55L49.75-15.55 59.75-17.2 59.75-13.3 50.8-11.8Q48.2-11.35 47.02-10.15 45.85-8.95 45.85-7.2L45.85-7.2Q45.85-5.55 47.17-4.45 48.5-3.35 50.5-3.35L50.5-3.35Q53.05-3.35 54.92-4.42 56.8-5.5 57.87-7.35 58.95-9.2 58.95-11.45L58.95-11.45 58.95-18.3Q58.95-20.5 57.32-21.88 55.7-23.25 53.05-23.25L53.05-23.25Q50.75-23.25 48.97-22.08 47.2-20.9 46.35-18.95L46.35-18.95 42.3-21.05Q43.05-22.9 44.7-24.38 46.35-25.85 48.55-26.7 50.75-27.55 53.15-27.55L53.15-27.55Q56.25-27.55 58.6-26.38 60.95-25.2 62.27-23.13 63.6-21.05 63.6-18.3L63.6-18.3 63.6 0 59.05 0 59.05-5.1 59.9-4.8Q59.05-3.2 57.6-2 56.15-0.8 54.2-0.1 52.25 0.6 49.95 0.6ZM75.45 0L70.8 0 70.8-26.95 75.35-26.95 75.35-22 74.85-22.7Q75.8-25 77.75-26.13 79.7-27.25 82.5-27.25L82.5-27.25 84.15-27.25 84.15-22.85 81.8-22.85Q78.95-22.85 77.2-21.08 75.45-19.3 75.45-16.05L75.45-16.05 75.45 0ZM100.69 0.6L100.69 0.6Q96.79 0.6 93.74-1.25 90.69-3.1 88.94-6.33 87.19-9.55 87.19-13.55L87.19-13.55Q87.19-17.6 88.92-20.75 90.64-23.9 93.62-25.73 96.59-27.55 100.29-27.55L100.29-27.55Q103.29-27.55 105.62-26.48 107.94-25.4 109.57-23.58 111.19-21.75 112.07-19.43 112.94-17.1 112.94-14.6L112.94-14.6Q112.94-14.05 112.87-13.38 112.79-12.7 112.69-12.1L112.69-12.1 90.59-12.1 90.59-16.1 109.99-16.1 107.79-14.3Q108.24-16.9 107.29-18.95 106.34-21 104.49-22.2 102.64-23.4 100.29-23.4L100.29-23.4Q97.94-23.4 95.99-22.2 94.04-21 92.97-18.78 91.89-16.55 92.09-13.5L92.09-13.5Q91.89-10.55 93.02-8.33 94.14-6.1 96.22-4.88 98.29-3.65 100.74-3.65L100.74-3.65Q103.44-3.65 105.29-4.9 107.14-6.15 108.29-8.1L108.29-8.1 112.19-6.1Q111.39-4.25 109.72-2.73 108.04-1.2 105.77-0.3 103.49 0.6 100.69 0.6ZM129.94 0.3L129.94 0.3Q125.99 0.3 123.87-1.95 121.74-4.2 121.74-8.3L121.74-8.3 121.74-22.5 116.84-22.5 116.84-26.95 117.84-26.95Q119.64-26.95 120.69-28.05 121.74-29.15 121.74-30.95L121.74-30.95 121.74-33.15 126.39-33.15 126.39-26.95 132.44-26.95 132.44-22.5 126.39-22.5 126.39-8.45Q126.39-7.1 126.82-6.1 127.24-5.1 128.24-4.53 129.24-3.95 130.89-3.95L130.89-3.95Q131.24-3.95 131.77-4 132.29-4.05 132.74-4.1L132.74-4.1 132.74 0Q132.09 0.15 131.29 0.23 130.49 0.3 129.94 0.3ZM146.34 0.6L146.34 0.6Q143.69 0.6 141.66-0.38 139.64-1.35 138.49-3.08 137.34-4.8 137.34-7.05L137.34-7.05Q137.34-9.2 138.26-10.93 139.19-12.65 141.16-13.85 143.14-15.05 146.14-15.55L146.14-15.55 156.14-17.2 156.14-13.3 147.19-11.8Q144.59-11.35 143.41-10.15 142.24-8.95 142.24-7.2L142.24-7.2Q142.24-5.55 143.56-4.45 144.89-3.35 146.89-3.35L146.89-3.35Q149.44-3.35 151.31-4.42 153.19-5.5 154.26-7.35 155.34-9.2 155.34-11.45L155.34-11.45 155.34-18.3Q155.34-20.5 153.71-21.88 152.09-23.25 149.44-23.25L149.44-23.25Q147.14-23.25 145.36-22.08 143.59-20.9 142.74-18.95L142.74-18.95 138.69-21.05Q139.44-22.9 141.09-24.38 142.74-25.85 144.94-26.7 147.14-27.55 149.54-27.55L149.54-27.55Q152.64-27.55 154.99-26.38 157.34-25.2 158.66-23.13 159.99-21.05 159.99-18.3L159.99-18.3 159.99 0 155.44 0 155.44-5.1 156.29-4.8Q155.44-3.2 153.99-2 152.54-0.8 150.59-0.1 148.64 0.6 146.34 0.6ZM171.84 0L167.19 0 167.19-37.85 171.84-37.85 171.84-11.9 169.94-12.35 184.24-26.95 190.19-26.95 179.84-16.1 190.89 0 185.39 0 175.29-14.6 178.19-14.75 170.34-6.55 171.84-9.95 171.84 0ZM206.98 0.6L206.98 0.6Q203.08 0.6 200.03-1.25 196.98-3.1 195.23-6.33 193.48-9.55 193.48-13.55L193.48-13.55Q193.48-17.6 195.21-20.75 196.93-23.9 199.91-25.73 202.88-27.55 206.58-27.55L206.58-27.55Q209.58-27.55 211.91-26.48 214.23-25.4 215.86-23.58 217.48-21.75 218.36-19.43 219.23-17.1 219.23-14.6L219.23-14.6Q219.23-14.05 219.16-13.38 219.08-12.7 218.98-12.1L218.98-12.1 196.88-12.1 196.88-16.1 216.28-16.1 214.08-14.3Q214.53-16.9 213.58-18.95 212.63-21 210.78-22.2 208.93-23.4 206.58-23.4L206.58-23.4Q204.23-23.4 202.28-22.2 200.33-21 199.26-18.78 198.18-16.55 198.38-13.5L198.38-13.5Q198.18-10.55 199.31-8.33 200.43-6.1 202.51-4.88 204.58-3.65 207.03-3.65L207.03-3.65Q209.73-3.65 211.58-4.9 213.43-6.15 214.58-8.1L214.58-8.1 218.48-6.1Q217.68-4.25 216.01-2.73 214.33-1.2 212.06-0.3 209.78 0.6 206.98 0.6Z" opacity="1" transform="matrix(1,0,0,1,0,0)" fill="#ffffff" class="wordmark-text-0" data-fill-palette-color="primary" id="text-0"></path></svg></g></svg></g></svg></g></svg></g><g><svg viewBox="0 0 97.21138856614247 97.21138856614246" height="97.21138856614246" width="97.21138856614247"><g><svg></svg></g><g id="icon-0"><svg viewBox="0 0 97.21138856614247 97.21138856614246" height="97.21138856614246" width="97.21138856614247"><g><path transform="scale(0.97211,0.97211)" d="M30 100c-16.569 0-30-13.431-30-30v-40c0-16.569 13.431-30 30-30h40c16.569 0 30 13.431 30 30v40c0 16.569-13.431 30-30 30z" fill="#4ba325" fill-rule="nonzero" stroke="none" stroke-width="1" stroke-linecap="butt" stroke-linejoin="miter" stroke-miterlimit="10" stroke-dasharray="" stroke-dashoffset="0" font-family="none" font-weight="none" font-size="none" text-anchor="none" style="mix-blend-mode: normal" data-fill-palette-color="accent"></path></g><g transform="matrix(1,0,0,1,19.4422777132285,25.856201685166038)"><svg viewBox="0 0 58.326833139685476 45.498985195810384" height="45.498985195810384" width="58.326833139685476"><g><svg xmlns="http://www.w3.org/2000/svg" data-name="Layer 1" viewBox="0.9714749831964885 11.748683265227204 98.05705003360703 76.4913167347728" x="0" y="0" height="45.498985195810384" width="58.326833139685476" class="icon-dxe-0" data-fill-palette-color="quaternary" id="dxe-0"><path d="M99 55.68A12.3 12.3 0 0 1 95.42 65.22L78.08 82.54V88.24H53.9L54 79.65A24.74 24.74 0 0 1 61.24 62.26L76 47.44A5 5 0 0 1 83.38 47.8 5.13 5.13 0 0 1 82.9 54.64L75.78 61.76A1.65 1.65 0 0 0 75.98 64.27 1.7 1.7 0 0 0 78.2 64L86.39 55.81A5.87 5.87 0 0 0 88.1 51.32L86.83 32.32A5.17 5.17 0 0 1 97.16 31.67ZM22 88.24H46.1L46 79.65A24.73 24.73 0 0 0 38.76 62.26L24 47.44A5 5 0 0 0 16.62 47.8 5.13 5.13 0 0 0 17.1 54.64L24.22 61.76A1.65 1.65 0 0 1 24.02 64.27 1.7 1.7 0 0 1 21.8 64L13.61 55.81A5.87 5.87 0 0 1 11.9 51.32L13.17 32.32A5.17 5.17 0 0 0 2.84 31.67L1 55.68A12.3 12.3 0 0 0 4.58 65.22L21.92 82.54ZM78 27.66A15.86 15.86 0 0 0 50.88 16.44L50.01 17.31 49.12 16.42A15.85 15.85 0 1 0 26.7 38.85L48.31 60.45A2.42 2.42 0 0 0 51.73 60.45L73.3 38.88A15.8 15.8 0 0 0 78 27.66" fill="#ffffff" data-fill-palette-color="quaternary"></path></svg></g></svg></g></svg></g></svg></g></svg></g><defs></defs></svg><rect width="395.52" height="75.48839154556222" fill="none" stroke="none" visibility="hidden"></rect></g></svg></g></svg>